<svg id="Layer_1" data-name="Layer 1" xmlns="http://www.w3.org/2000/svg" viewBox="0 0 168.08 79.83"><defs><style>.cls-1{fill:#009fe3;}.cls-1,.cls-2{stroke:#1d1d1b;}.cls-1,.cls-2,.cls-3{stroke-miterlimit:10;}.cls-1,.cls-2,.cls-3,.cls-4,.cls-5{stroke-width:2px;}.cls-2,.cls-3,.cls-4,.cls-5{fill:none;}.cls-3,.cls-4,.cls-5{stroke:#009fe3;}.cls-4,.cls-5{stroke-linejoin:round;}.cls-5{stroke-linecap:round;}</style></defs><rect class="cls-1" x="61.24" y="54.17" width="45.61" height="10.91" rx="5.46"/><polyline class="cls-2" points="44.37 39.59 50.91 1 57.7 1"/><polyline class="cls-2" points="124.71 39.6 118.14 1 111.35 1"/><polyline class="cls-3" points="116.26 35.94 115.17 28.43 115.17 28.43 54.27 28.43 52.82 35.94"/><polyline class="cls-3" points="113.05 27.02 111.96 19.52 111.96 19.52 57.47 19.52 56.03 27.02"/><polyline class="cls-3" points="109.84 17.63 108.76 10.12 108.76 10.12 60.68 10.12 59.23 17.63"/><polyline class="cls-3" points="106.64 8.53 105.55 1.02 105.55 1.02 63.88 1.02 62.44 8.53"/><polygon class="cls-2" points="93.62 40.42 124.69 40.42 124.69 78.83 44.39 78.83 44.39 40.42 75.45 40.42 77.88 46.62 91.19 46.62 93.62 40.42"/><line class="cls-4" x1="28.05" y1="40.43" x2="43.39" y2="40.43"/><path class="cls-5" d="M31.8,100.89c.8-12.2,1.81-16.35,1.9-16.69.37-1.42,1,1.34,1.19,3.65,0,.15,1,13.7,1.27,13.86.52.26,1.7-1.87,1.92-1.35,1.37,3.34,2.3,22.34,3.37,19.23.14-.41,1.27-8.23,2.06-19.08" transform="translate(-15.46 -60.09)"/><line class="cls-5" x1="1" y1="40.79" x2="16.34" y2="40.79"/><line class="cls-4" x1="152.74" y1="40.06" x2="168.08" y2="40.06"/><path class="cls-5" d="M156.49,100.53c.8-12.2,1.81-16.36,1.9-16.7.37-1.41,1,1.35,1.19,3.66,0,.15,1,13.7,1.27,13.86.52.26,1.7-1.87,1.92-1.35,1.37,3.34,2.31,22.34,3.37,19.23.14-.41,1.27-8.23,2.06-19.08" transform="translate(-15.46 -60.09)"/><line class="cls-4" x1="125.69" y1="40.43" x2="141.03" y2="40.43"/></svg>